<svg width="33" height="27" viewBox="0 0 33 27" fill="none" xmlns="http://www.w3.org/2000/svg">
<path opacity="0.5" d="M7.92 0.511998C9.88267 0.511999 11.5467 1.23733 12.912 2.688C14.2773 4.224 14.96 6.272 14.96 8.832C14.96 12.5013 14.4053 15.488 13.296 17.792C12.1867 20.1813 10.9493 22.0587 9.584 23.424C8.048 24.96 6.21333 26.112 4.08 26.88L2.8 24.832C4.25067 24.1493 5.53067 23.3387 6.64 22.4C7.57867 21.5467 8.47467 20.5227 9.328 19.328C10.096 18.2187 10.48 16.8533 10.48 15.232C10.48 14.6347 10.3947 14.1653 10.224 13.824C10.1387 13.568 10.0107 13.3973 9.84 13.312C9.66933 13.3973 9.41333 13.4827 9.072 13.568C8.816 13.6533 8.56 13.7387 8.304 13.824C7.96267 13.9093 7.62133 13.952 7.28 13.952C5.31733 13.952 3.78133 13.3547 2.672 12.16C1.47733 11.0507 0.879999 9.51467 0.879999 7.552C0.879999 5.58933 1.56267 3.92533 2.928 2.56C4.29333 1.19467 5.95733 0.511998 7.92 0.511998ZM25.84 0.512C27.8027 0.512 29.4667 1.23733 30.832 2.688C32.1973 4.224 32.88 6.272 32.88 8.832C32.88 12.5013 32.3253 15.488 31.216 17.792C30.1067 20.1813 28.8693 22.0587 27.504 23.424C25.968 24.96 24.1333 26.112 22 26.88L20.72 24.832C22.1707 24.1493 23.4507 23.3387 24.56 22.4C25.4987 21.5467 26.3947 20.5227 27.248 19.328C28.016 18.2187 28.4 16.8533 28.4 15.232C28.4 14.6347 28.3147 14.1653 28.144 13.824C28.0587 13.568 27.9307 13.3973 27.76 13.312C27.5893 13.3973 27.3333 13.4827 26.992 13.568C26.736 13.6533 26.48 13.7387 26.224 13.824C25.8827 13.9093 25.5413 13.952 25.2 13.952C23.2373 13.952 21.7013 13.3547 20.592 12.16C19.3973 11.0507 18.8 9.51467 18.8 7.552C18.8 5.58933 19.4827 3.92533 20.848 2.56C22.2133 1.19467 23.8773 0.512 25.84 0.512Z" fill="white"/>
</svg>
