<svg width="204" height="55" viewBox="0 0 204 55" fill="none" xmlns="http://www.w3.org/2000/svg">
<g opacity="0.1">
<path d="M1.344 30H0.96L10.528 7.6L10.88 7.44L18.944 30H16.224L13.728 22.96H4.384L1.344 30ZM9.536 11.056L4.512 22.64H13.632L9.536 11.056ZM33.9938 30H21.8338V7.6H24.4898V29.68H33.9938V30ZM49.9448 7.6V7.92H39.8648V17.52H49.2088V17.84H39.8648V29.68H50.6488V30H37.2088V7.6H49.9448ZM53.7013 30H53.2853L59.0773 18.544L52.7413 7.6H55.4293L60.9333 17.072L65.7333 7.6H66.1173L61.1573 17.456L68.4533 30H65.7653L59.3013 18.896L53.7013 30ZM70.7503 30H70.3663L79.9343 7.6L80.2863 7.44L88.3503 30H85.6303L83.1343 22.96H73.7903L70.7503 30ZM78.9423 11.056L73.9183 22.64H83.0383L78.9423 11.056ZM91.496 30H91.08V7.6H92.168L105.48 28.304V7.6H105.896V30H103.56L91.496 11.44V30ZM112.769 7.632C113.707 7.58933 114.625 7.568 115.521 7.568C116.438 7.568 117.398 7.664 118.401 7.856C119.425 8.048 120.427 8.41067 121.409 8.944C122.411 9.456 123.254 10.128 123.937 10.96C124.641 11.7707 125.206 12.848 125.633 14.192C126.059 15.536 126.273 17.168 126.273 19.088C126.273 21.008 125.953 22.736 125.313 24.272C124.694 25.7867 123.841 26.9493 122.753 27.76C120.641 29.3387 118.091 30.128 115.105 30.128C114.059 30.128 112.961 30.0853 111.809 30H110.209V7.632H112.769ZM112.865 29.744C113.313 29.7867 113.878 29.808 114.561 29.808C115.243 29.808 115.755 29.7973 116.097 29.776C116.438 29.7547 116.907 29.6693 117.505 29.52C118.102 29.3493 118.657 29.1253 119.169 28.848C119.681 28.5707 120.214 28.1653 120.769 27.632C121.345 27.0773 121.835 26.4267 122.241 25.68C123.158 23.9307 123.617 21.648 123.617 18.832C123.617 16.8267 123.371 15.0987 122.881 13.648C122.39 12.176 121.825 11.088 121.185 10.384C120.566 9.68 119.809 9.12533 118.913 8.72C118.017 8.29333 117.302 8.048 116.769 7.984C116.235 7.92 115.617 7.888 114.913 7.888C114.209 7.888 113.526 7.92 112.865 7.984V29.744ZM129.803 7.856C132.277 7.68533 134.464 7.6 136.363 7.6C141.632 7.6 144.267 9.36 144.267 12.88C144.267 14.3733 143.904 15.7067 143.179 16.88C142.453 18.0533 141.205 18.832 139.435 19.216L145.835 30H142.859L136.587 19.408H132.459V30H129.803V7.856ZM136.363 7.92C135.125 7.92 133.824 7.99467 132.459 8.144V19.088H137.195C140.203 18.96 141.707 16.912 141.707 12.944C141.707 11.3227 141.259 10.0853 140.363 9.232C139.467 8.35733 138.133 7.92 136.363 7.92ZM147.413 19.344C147.413 15.4613 148.351 12.5173 150.229 10.512C152.127 8.48533 154.559 7.472 157.525 7.472C160.49 7.472 162.847 8.34667 164.597 10.096C166.367 11.8453 167.253 14.64 167.253 18.48C167.253 22.32 166.314 25.2213 164.437 27.184C162.559 29.1467 160.053 30.128 156.917 30.128C154.207 30.128 151.989 29.3493 150.261 27.792C149.365 26.9813 148.661 25.8613 148.149 24.432C147.658 22.9813 147.413 21.2853 147.413 19.344ZM157.429 7.792C155.274 7.792 153.503 8.752 152.117 10.672C150.751 12.592 150.069 15.408 150.069 19.12C150.069 22.832 150.719 25.5413 152.021 27.248C153.322 28.9547 155.05 29.808 157.205 29.808C159.381 29.808 161.151 28.848 162.517 26.928C163.903 24.9867 164.597 22.1813 164.597 18.512C164.597 14.8213 163.935 12.112 162.613 10.384C161.311 8.656 159.583 7.792 157.429 7.792ZM185.187 7.6C185.592 8.00533 185.795 8.528 185.795 9.168C185.795 9.70133 185.678 10.2453 185.443 10.8L177.251 30L176.899 30.16L168.835 7.6H171.555L178.243 26.544L185.059 10.8C185.294 10.2667 185.411 9.712 185.411 9.136C185.411 8.56 185.251 8.112 184.931 7.792L185.187 7.6ZM185.219 30H184.835L194.403 7.6L194.755 7.44L202.819 30H200.099L197.603 22.96H188.259L185.219 30ZM193.411 11.056L188.387 22.64H197.507L193.411 11.056Z" fill="white"/>
<path d="M184.25 46.5543L189.812 33.6182H190.994L183.856 49.9814H183.207L176.045 33.6182H177.296L182.859 46.5089C183.245 47.4319 183.485 48.0673 183.577 48.4154C183.701 47.9312 183.925 47.3108 184.25 46.5543Z" fill="white"/>
<path fill-rule="evenodd" clip-rule="evenodd" d="M177.128 42.1183L175.221 46.5542C174.896 47.3107 174.672 47.9311 174.548 48.4151C174.456 48.0673 174.216 47.4318 173.83 46.5088L168.268 33.618H167.016L174.178 49.9811H174.827L177.677 43.4463L177.128 42.1183ZM119.847 33.5273C118.596 33.5273 117.367 33.5727 116.162 33.6634V49.7995C117.615 49.9206 119.136 49.9811 120.728 49.9811C122.335 49.9811 123.594 49.6105 124.506 48.869C125.433 48.1277 125.896 47.0459 125.896 45.6237C125.896 44.61 125.526 43.6946 124.784 42.8776C124.042 42.0606 123.123 41.4857 122.026 41.1528C122.706 40.7746 123.285 40.2147 123.764 39.4734C124.259 38.732 124.506 37.9301 124.506 37.0677C124.506 35.9178 124.042 35.0403 123.115 34.4351C122.204 33.8299 121.114 33.5273 119.847 33.5273ZM123.648 48.0974C122.922 48.7027 121.995 49.0052 120.867 49.0052C119.152 49.0052 117.954 48.9674 117.275 48.8917V41.6521H118.804C119.561 41.6521 120.226 41.7126 120.798 41.8336C122.018 42.0909 122.976 42.5675 123.671 43.2634C124.382 43.9594 124.738 44.784 124.738 45.7372C124.738 46.6904 124.374 47.4771 123.648 48.0974ZM122.327 35.1159C123.038 35.5698 123.393 36.2128 123.393 37.045C123.393 37.862 123.146 38.611 122.652 39.2918C122.157 39.9727 121.562 40.4946 120.867 40.8578C119.785 40.767 118.967 40.7216 118.41 40.7216H117.275V34.5258C118.202 34.4653 119.098 34.4351 119.963 34.4351C120.844 34.4351 121.632 34.662 122.327 35.1159ZM131.897 33.6861V49.8449H133.01V43.1727C134.246 43.2634 135.621 43.3088 137.135 43.3088C139.252 46.1533 140.573 47.8478 141.098 48.3924C141.639 48.9371 142.203 49.3456 142.79 49.618C143.377 49.8752 144.142 50.0114 145.085 50.0265L145.108 49.3002C143.918 49.1641 142.852 48.6043 141.91 47.6209C141.662 47.3485 141.114 46.6828 140.264 45.6237C139.43 44.5495 138.727 43.6266 138.155 42.8549C138.881 42.3556 139.538 41.6824 140.125 40.8351C140.712 39.9878 141.006 39.0724 141.006 38.089C141.006 36.6365 140.496 35.5169 139.476 34.7301C138.456 33.9282 137.158 33.5273 135.582 33.5273C134.593 33.5273 133.365 33.5802 131.897 33.6861ZM138.642 41.0847C137.869 41.9622 137.143 42.401 136.463 42.401C135.397 42.401 134.246 42.3632 133.01 42.2875V34.5939C133.937 34.5334 134.748 34.5031 135.443 34.5031C136.756 34.5031 137.807 34.8058 138.595 35.411C139.399 36.001 139.8 36.8786 139.8 38.0436C139.8 39.1935 139.414 40.2072 138.642 41.0847ZM147.338 41.7202C147.338 44.0805 148.102 46.0701 149.632 47.689C151.177 49.3079 153.124 50.1173 155.473 50.1173C157.821 50.1173 159.768 49.3079 161.313 47.689C162.858 46.0701 163.631 44.0805 163.631 41.7202C163.631 39.3599 162.858 37.3778 161.313 35.7741C159.768 34.1552 157.821 33.3457 155.473 33.3457C153.124 33.3457 151.177 34.1552 149.632 35.7741C148.102 37.3778 147.338 39.3599 147.338 41.7202ZM148.543 41.7202C148.543 39.6322 149.184 37.8847 150.467 36.4776C151.749 35.0554 153.418 34.3443 155.473 34.3443C157.528 34.3443 159.196 35.0554 160.479 36.4776C161.777 37.8847 162.426 39.6322 162.426 41.7202C162.426 43.8081 161.777 45.5632 160.479 46.9854C159.196 48.4077 157.528 49.1187 155.473 49.1187C153.433 49.1187 151.764 48.4077 150.467 46.9854C149.184 45.5632 148.543 43.8081 148.543 41.7202ZM199.86 34.3443C200.973 34.3443 202.093 34.5788 203.221 35.0478L203.615 34.1627C202.425 33.618 201.135 33.3457 199.744 33.3457C198.369 33.3457 197.272 33.6634 196.453 34.2989C195.65 34.9192 195.248 35.7665 195.248 36.8407C195.248 37.6578 195.503 38.4218 196.013 39.1329C196.523 39.8441 197.141 40.4568 197.867 40.9712C198.593 41.4857 199.319 41.9925 200.046 42.4918C200.772 42.976 201.39 43.5282 201.9 44.1485C202.41 44.7537 202.665 45.3968 202.665 46.0776C202.665 47.0611 202.309 47.8176 201.599 48.3471C200.888 48.8616 199.868 49.1187 198.539 49.1187C197.21 49.1187 195.99 48.7632 194.877 48.052L194.321 48.869C195.495 49.7013 196.909 50.1173 198.562 50.1173C200.231 50.1173 201.537 49.7694 202.479 49.0733C203.422 48.3623 203.893 47.3183 203.893 45.9414C203.893 45.1244 203.638 44.3679 203.128 43.6719C202.618 42.976 202 42.3783 201.274 41.879C200.548 41.3797 199.822 40.8956 199.095 40.4266C198.369 39.9424 197.751 39.3977 197.241 38.7925C196.731 38.1722 196.476 37.5065 196.476 36.7953C196.476 35.1613 197.604 34.3443 199.86 34.3443Z" fill="white"/>
</g>
</svg>
