<svg width="107" height="125" viewBox="0 0 107 125" fill="none" xmlns="http://www.w3.org/2000/svg">
<path d="M54.5469 57C54.5469 56.1716 53.8753 55.5 53.0469 55.5C52.2184 55.5 51.5469 56.1716 51.5469 57L54.5469 57ZM51.9862 93.0607C52.572 93.6464 53.5218 93.6464 54.1075 93.0607L63.6535 83.5147C64.2393 82.9289 64.2393 81.9792 63.6535 81.3934C63.0677 80.8076 62.1179 80.8076 61.5322 81.3934L53.0469 89.8787L44.5616 81.3934C43.9758 80.8076 43.0261 80.8076 42.4403 81.3934C41.8545 81.9792 41.8545 82.9289 42.4403 83.5147L51.9862 93.0607ZM51.5469 57L51.5469 92L54.5469 92L54.5469 57L51.5469 57Z" fill="#151515"/>
<path d="M103.811 75C103.811 102.03 81.1159 124 53.0464 124C24.9769 124 2.28174 102.03 2.28174 75C2.28174 47.9705 24.9769 26 53.0464 26C81.1159 26 103.811 47.9705 103.811 75Z" stroke="#151515" stroke-width="2"/>
<path d="M14.5258 38.2297L11.3923 34.2246L12.1496 33.6719C12.2287 33.2509 12.2182 32.7459 12.118 32.157C12.0186 31.5616 11.7721 30.851 11.3784 30.0252C10.9856 29.1929 10.3871 28.2091 9.58284 27.0736L6.05405 22.0564L13.0297 16.9646L21.0298 27.1898L22.3836 26.2016L25.4996 30.1843L24.1457 31.1726L21.9926 28.4205L13.709 34.467L15.8797 37.2415L14.5258 38.2297ZM13.8476 32.4324L19.6759 28.1781L12.6387 19.1834L8.30184 22.3491L10.9367 26.0854C11.5443 26.9542 12.0563 27.7699 12.4725 28.5323C12.8859 29.291 13.2069 29.997 13.4357 30.6503C13.6615 31.2999 13.7988 31.8939 13.8476 32.4324Z" fill="#151515"/>
<path d="M31.3075 24.3125C30.6593 24.5528 30.023 24.6499 29.3985 24.6037C28.7723 24.5532 28.212 24.3545 27.7177 24.0077C27.2216 23.6564 26.8424 23.1508 26.5801 22.4908C26.3493 21.91 26.2777 21.3964 26.3651 20.95C26.4509 20.4992 26.6458 20.0988 26.9499 19.7488C27.2539 19.3988 27.6189 19.0867 28.0449 18.8127C28.4735 18.5327 28.9131 18.2738 29.3637 18.0361C29.9537 17.7264 30.434 17.4802 30.8045 17.2974C31.1777 17.1086 31.433 16.9307 31.5704 16.7636C31.7122 16.5949 31.7333 16.3852 31.6336 16.1344L31.6126 16.0816C31.3539 15.4304 30.973 14.991 30.47 14.7635C29.9715 14.5343 29.3604 14.5539 28.6367 14.8222C27.8864 15.1003 27.3629 15.4812 27.0661 15.9648C26.7692 16.4484 26.6077 16.9071 26.5814 17.341L24.8799 17.3659C24.9015 16.6512 25.0661 16.0399 25.3737 15.5321C25.684 15.0182 26.0761 14.5952 26.5503 14.2629C27.0271 13.9246 27.5229 13.66 28.0379 13.4691C28.3665 13.3473 28.7596 13.247 29.2172 13.1682C29.6776 13.0833 30.1548 13.0856 30.6488 13.1751C31.1472 13.263 31.6249 13.4973 32.0818 13.8782C32.5388 14.2591 32.9272 14.8521 33.2472 15.6574L35.9013 22.3369L34.3297 22.9195L33.7842 21.5466L33.7043 21.5763C33.6851 21.8358 33.6011 22.137 33.4521 22.48C33.3032 22.823 33.0572 23.159 32.7143 23.4881C32.3713 23.8171 31.9024 24.092 31.3075 24.3125ZM30.9912 22.8244C31.6128 22.5939 32.0886 22.2787 32.4186 21.8787C32.7531 21.477 32.953 21.0445 33.0185 20.581C33.0883 20.1159 33.0393 19.6721 32.8715 19.2497L32.305 17.8241C32.2699 17.928 32.1522 18.0549 31.952 18.2048C31.7545 18.3487 31.5189 18.4992 31.2451 18.6562C30.974 18.8072 30.7078 18.9513 30.4466 19.0885C30.188 19.2197 29.9787 19.3276 29.8188 19.4122C29.4313 19.6164 29.0836 19.8437 28.7756 20.0942C28.4704 20.3386 28.2553 20.6178 28.1304 20.9316C28.0082 21.2394 28.0258 21.5913 28.1832 21.9874C28.3983 22.5286 28.7629 22.8629 29.277 22.9904C29.7939 23.1118 30.3653 23.0564 30.9912 22.8244Z" fill="#151515"/>
<path d="M39.9945 21.1474L39.7895 19.5984L40.1842 19.5497C40.5084 19.5097 40.7703 19.4129 40.9696 19.2595C41.1684 19.1014 41.3121 18.8522 41.4009 18.5121C41.4936 18.1667 41.5368 17.6986 41.5302 17.1079C41.5277 16.5119 41.483 15.7589 41.396 14.8489L40.9596 10.0367L48.1775 9.14538L49.609 19.9601L47.9455 20.1656L46.719 10.8998L42.7436 11.3907L43.0851 15.27C43.1649 16.1618 43.1885 16.9532 43.1558 17.6442C43.1271 18.3299 43.0208 18.9156 42.8367 19.401C42.6573 19.8859 42.3831 20.2681 42.0141 20.5474C41.6451 20.8267 41.1599 21.0035 40.5584 21.0778L39.9945 21.1474Z" fill="#151515"/>
<path d="M57.2096 13.0797L60.3151 13.4281C61.5855 13.5706 62.5185 14.0016 63.1139 14.7212C63.7093 15.4407 63.9477 16.2941 63.8289 17.2813C63.7509 17.93 63.5294 18.5031 63.1644 19.0005C62.7999 19.4932 62.3071 19.8643 61.6857 20.1139C61.065 20.3587 60.3311 20.4336 59.4841 20.3385L54.9388 19.8286L56.2412 8.99753L57.9069 9.1844L56.791 18.4641L59.6707 18.7872C60.3294 18.8611 60.8914 18.7479 61.3568 18.4475C61.8221 18.1472 62.0875 17.7243 62.1531 17.179C62.222 16.6055 62.0666 16.114 61.6866 15.7045C61.3066 15.295 60.7873 15.0533 60.1285 14.9794L57.023 14.631L57.2096 13.0797Z" fill="#151515"/>
<path d="M73.3644 11.6196L74.9114 12.2648L71.0969 20.7976L74.8988 22.3832L78.7133 13.8504L80.2602 14.4956L76.4458 23.0284L80.2477 24.6141L84.0621 16.0813L85.6091 16.7265L81.157 26.6858L68.9123 21.5788L73.3644 11.6196Z" fill="#151515"/>
<path d="M89.6186 32.7744C88.8021 32.1126 88.2498 31.3665 87.9619 30.5362C87.6808 29.7053 87.6551 28.8438 87.8847 27.9518C88.1211 27.0591 88.6057 26.191 89.3385 25.3475C90.0714 24.5039 90.8754 23.8887 91.7507 23.5017C92.6328 23.1141 93.5157 22.9709 94.3995 23.072C95.29 23.1725 96.1178 23.5328 96.8829 24.1529C97.3243 24.5107 97.6981 24.9355 98.0043 25.4273C98.3104 25.9191 98.5003 26.4689 98.574 27.0768C98.6507 27.6812 98.5657 28.331 98.3189 29.0264C98.0721 29.7218 97.6149 30.4537 96.9472 31.2222L96.4814 31.7583L89.9487 26.4634L90.8989 25.3696L96.1075 29.5913C96.5111 29.1266 96.7757 28.6345 96.9012 28.1148C97.0303 27.5982 97.0118 27.0928 96.8455 26.5987C96.683 26.1076 96.3663 25.6712 95.8955 25.2896C95.3768 24.8692 94.8194 24.6306 94.2231 24.5737C93.6337 24.5162 93.0655 24.6039 92.5185 24.8367C91.9715 25.0694 91.5008 25.4128 91.1064 25.8667L90.473 26.5959C89.9327 27.2179 89.585 27.8345 89.4299 28.4459C89.2817 29.0567 89.3084 29.6357 89.51 30.1829C89.7147 30.7265 90.0801 31.2114 90.6061 31.6378C90.9482 31.915 91.2976 32.119 91.6542 32.2497C92.0176 32.3798 92.3827 32.4321 92.7496 32.4066C93.1196 32.3776 93.484 32.2648 93.8427 32.0683L94.8026 33.431C94.31 33.7383 93.7707 33.9226 93.1848 33.9837C92.602 34.0412 92.0046 33.9713 91.3926 33.7737C90.7838 33.5726 90.1925 33.2395 89.6186 32.7744Z" fill="#151515"/>
</svg>
