<svg width="115" height="125" viewBox="0 0 115 125" fill="none" xmlns="http://www.w3.org/2000/svg">
<path d="M61.625 56.2075C61.625 55.3791 60.9534 54.7075 60.125 54.7075C59.2966 54.7075 58.625 55.3791 58.625 56.2075L61.625 56.2075ZM59.0643 92.2682C59.6501 92.854 60.5999 92.854 61.1857 92.2682L70.7316 82.7222C71.3174 82.1365 71.3174 81.1867 70.7316 80.6009C70.1458 80.0151 69.1961 80.0151 68.6103 80.6009L60.125 89.0862L51.6397 80.6009C51.0539 80.0151 50.1042 80.0151 49.5184 80.6009C48.9326 81.1867 48.9326 82.1365 49.5184 82.7222L59.0643 92.2682ZM58.625 56.2075L58.625 91.2075L61.625 91.2075L61.625 56.2075L58.625 56.2075Z" fill="#151515"/>
<path d="M110.89 74.2075C110.89 101.237 88.1946 123.208 60.125 123.208C32.0555 123.208 9.36035 101.237 9.36035 74.2075C9.36035 47.178 32.0555 25.2075 60.125 25.2075C88.1946 25.2075 110.89 47.178 110.89 74.2075Z" stroke="#151515" stroke-width="2"/>
<path d="M18.2086 26.7612C19.2982 27.8411 20.0448 28.9711 20.4485 30.1511C20.8522 31.3312 20.9293 32.4776 20.6798 33.5902C20.4303 34.7029 19.8689 35.6998 18.9957 36.5809C18.1224 37.462 17.1306 38.0323 16.0202 38.2917C14.9098 38.5511 13.7628 38.4842 12.5791 38.0911C11.3955 37.6979 10.2589 36.9614 9.1693 35.8815C8.07971 34.8016 7.33306 33.6716 6.92937 32.4915C6.52568 31.3115 6.44858 30.1651 6.69807 29.0524C6.94755 27.9397 7.50893 26.9428 8.38219 26.0618C9.25545 25.1807 10.2473 24.6104 11.3577 24.351C12.4681 24.0916 13.6151 24.1584 14.7987 24.5516C15.9824 24.9447 17.119 25.6812 18.2086 26.7612ZM17.0087 27.9718C16.1141 27.0852 15.2108 26.4866 14.2988 26.176C13.39 25.8619 12.526 25.8022 11.7065 25.9967C10.8905 26.1878 10.1725 26.5962 9.5525 27.2217C8.93255 27.8472 8.52899 28.5705 8.34181 29.3916C8.15797 30.2093 8.22544 31.0729 8.54422 31.9821C8.86633 32.888 9.47466 33.7842 10.3692 34.6708C11.2638 35.5574 12.1654 36.1577 13.0741 36.4717C13.9862 36.7824 14.8503 36.8421 15.6663 36.651C16.4857 36.4565 17.2054 36.0465 17.8254 35.421C18.4453 34.7955 18.8472 34.0739 19.0311 33.2561C19.2182 32.435 19.1508 31.5715 18.8287 30.6656C18.5099 29.7563 17.9032 28.8584 17.0087 27.9718Z" fill="#151515"/>
<path d="M36.1124 24.6065C35.1803 25.0275 34.2783 25.17 33.4064 25.0339C32.5344 24.8978 31.7428 24.5254 31.0314 23.9167C30.3201 23.308 29.7403 22.5074 29.292 21.515C28.8359 20.5052 28.619 19.5304 28.6412 18.5903C28.6658 17.6441 28.9141 16.802 29.3861 16.064C29.8604 15.3198 30.5464 14.745 31.4439 14.3396C32.143 14.0239 32.8314 13.8688 33.5093 13.8743C34.1872 13.8799 34.8105 14.0348 35.3792 14.339C35.9478 14.6433 36.4156 15.0866 36.7826 15.669L35.255 16.359C34.9339 15.9585 34.4937 15.6741 33.9345 15.5059C33.3777 15.3313 32.7628 15.3961 32.0896 15.7001C31.4941 15.9691 31.0422 16.3603 30.7337 16.8737C30.4276 17.3808 30.2762 17.9714 30.2793 18.6454C30.2847 19.3131 30.457 20.0224 30.7961 20.7732C31.1431 21.5413 31.566 22.1556 32.0649 22.616C32.5681 23.0745 33.1131 23.3609 33.6999 23.4752C34.2909 23.5875 34.8885 23.5072 35.4926 23.2343C35.8896 23.055 36.2187 22.8232 36.48 22.5389C36.7413 22.2547 36.9256 21.9324 37.033 21.5722C37.1405 21.2119 37.1598 20.8291 37.091 20.4238L38.6186 19.7338C38.7973 20.3596 38.8225 20.9847 38.6941 21.609C38.568 22.2271 38.289 22.7999 37.8571 23.3275C37.4275 23.8488 36.846 24.2752 36.1124 24.6065Z" fill="#151515"/>
<path d="M41.7459 12.2162L41.4288 10.6862L50.1079 8.88729L50.4251 10.4173L46.92 11.1438L48.817 20.2958L47.1757 20.636L45.2788 11.484L41.7459 12.2162Z" fill="#151515"/>
<path d="M57.196 23.2618C56.9119 23.2586 56.6589 23.2321 56.4369 23.1822C56.2149 23.1371 56.0615 23.0928 55.9767 23.0493L56.4194 21.5768C56.8254 21.6856 57.1848 21.7275 57.4976 21.7025C57.8104 21.6776 58.0889 21.5411 58.3332 21.2928C58.5821 21.0494 58.8115 20.6518 59.0213 20.1002L59.3433 19.2514L55.4321 8.2411L57.2502 8.26143L60.1641 16.9878L60.2777 16.989L63.3861 8.33007L65.2042 8.35041L60.434 20.7978C60.2194 21.3589 59.9561 21.8224 59.6443 22.1882C59.3323 22.5588 58.9718 22.8318 58.5626 23.0071C58.1581 23.1826 57.7026 23.2674 57.196 23.2618Z" fill="#151515"/>
<path d="M67.5091 22.4603L68.6459 17.9127L69.5279 18.1332C69.8 17.9621 70.0469 17.7652 70.2686 17.5424C70.4902 17.3196 70.7032 17.0434 70.9076 16.7138C71.1178 16.3808 71.3291 15.9651 71.5415 15.4667C71.7551 14.9637 71.9865 14.3504 72.2357 13.627L73.6412 9.52727L80.3661 11.2084L78.0993 20.2759L79.7254 20.6824L78.5886 25.23L76.9625 24.8235L77.7204 21.7918L69.8931 19.8351L69.1352 22.8668L67.5091 22.4603ZM71.3745 18.5948L76.4732 19.8694L78.361 12.3177L74.7781 11.4221L73.8342 14.0266C73.4426 15.1049 73.0585 16.0362 72.6818 16.8206C72.3052 17.6049 71.8694 18.1963 71.3745 18.5948Z" fill="#151515"/>
<path d="M85.6161 22.2354L94.1858 17.1982L95.8972 18.0942L90.8372 27.7589L89.3523 26.9814L93.2659 19.5064L84.7214 24.5568L82.9847 23.6476L88.0447 13.983L89.5297 14.7604L85.6161 22.2354Z" fill="#151515"/>
<path d="M97.3589 29.4141L106.855 26.4762L108.316 27.7408L101.174 35.9876L99.9072 34.8904L105.431 28.512L95.9557 31.4685L94.4738 30.1853L101.615 21.9385L102.882 23.0357L97.3589 29.4141Z" fill="#151515"/>
</svg>
